<?xml version="1.0" encoding="UTF-8"?>
<svg width="1200" height="600" xmlns="http://www.w3.org/2000/svg">
<rect width="100%" height="100%" fill="#f8f9fa"/>
<text x="600" y="40" text-anchor="middle" font-size="20" font-weight="bold" fill="#2c3e50">Gráfico de Gantt - Escalonamento de Processos</text>
<text x="65" y="99" text-anchor="end" font-size="12" font-weight="bold" fill="#34495e">t01</text>
<line x1="80" y1="80" x2="80" y2="120" stroke="#bdc3c7" stroke-width="1" stroke-dasharray="2,2"/>
<text x="80" y="60" text-anchor="middle" font-size="10" fill="#7f8c8d">0</text>
<line x1="80" y1="75" x2="80" y2="80" stroke="#34495e" stroke-width="1"/>
<line x1="253" y1="80" x2="253" y2="120" stroke="#bdc3c7" stroke-width="1" stroke-dasharray="2,2"/>
<text x="253" y="60" text-anchor="middle" font-size="10" fill="#7f8c8d">1</text>
<line x1="253" y1="75" x2="253" y2="80" stroke="#34495e" stroke-width="1"/>
<line x1="426" y1="80" x2="426" y2="120" stroke="#bdc3c7" stroke-width="1" stroke-dasharray="2,2"/>
<text x="426" y="60" text-anchor="middle" font-size="10" fill="#7f8c8d">2</text>
<line x1="426" y1="75" x2="426" y2="80" stroke="#34495e" stroke-width="1"/>
<line x1="600" y1="80" x2="600" y2="120" stroke="#bdc3c7" stroke-width="1" stroke-dasharray="2,2"/>
<text x="600" y="60" text-anchor="middle" font-size="10" fill="#7f8c8d">3</text>
<line x1="600" y1="75" x2="600" y2="80" stroke="#34495e" stroke-width="1"/>
<line x1="773" y1="80" x2="773" y2="120" stroke="#bdc3c7" stroke-width="1" stroke-dasharray="2,2"/>
<text x="773" y="60" text-anchor="middle" font-size="10" fill="#7f8c8d">4</text>
<line x1="773" y1="75" x2="773" y2="80" stroke="#34495e" stroke-width="1"/>
<line x1="946" y1="80" x2="946" y2="120" stroke="#bdc3c7" stroke-width="1" stroke-dasharray="2,2"/>
<text x="946" y="60" text-anchor="middle" font-size="10" fill="#7f8c8d">5</text>
<line x1="946" y1="75" x2="946" y2="80" stroke="#34495e" stroke-width="1"/>
<line x1="1120" y1="80" x2="1120" y2="120" stroke="#bdc3c7" stroke-width="1" stroke-dasharray="2,2"/>
<text x="1120" y="60" text-anchor="middle" font-size="10" fill="#7f8c8d">6</text>
<line x1="1120" y1="75" x2="1120" y2="80" stroke="#34495e" stroke-width="1"/>
<line x1="80" y1="80" x2="1120" y2="80" stroke="#34495e" stroke-width="2"/>
<line x1="80" y1="80" x2="80" y2="120" stroke="#34495e" stroke-width="2"/>
<rect x="253" y="80" width="693" height="30" fill="#2ecc71" stroke="#24a35a" stroke-width="1" rx="4"/>
<text x="599" y="98" text-anchor="middle" font-size="9" fill="white" font-weight="bold">4,0</text>
<title>Processo: t01 | Início: 1,0 | Fim: 5,0 | Duração: 4,0 | Estado: terminated</title>
<rect x="946" y="80" width="174" height="30" fill="#2ecc71" stroke="#24a35a" stroke-width="1" rx="4"/>
<text x="1033" y="98" text-anchor="middle" font-size="9" fill="white" font-weight="bold">1,0</text>
<title>Processo: t01 | Início: 5,0 | Fim: 6,0 | Duração: 1,0 | Estado: terminated</title>
<text x="80" y="160" font-size="14" font-weight="bold" fill="#2c3e50">Legenda:</text>
<rect x="80" y="170" width="18" height="18" fill="#4ECDC4" stroke="#3ea49c" stroke-width="1" rx="3"/>
<text x="105" y="183" font-size="12" fill="#2c3e50">Executando</text>
<rect x="230" y="170" width="18" height="18" fill="#3498db" stroke="#2979af" stroke-width="1" rx="3"/>
<text x="255" y="183" font-size="12" fill="#2c3e50">Pronto</text>
<rect x="380" y="170" width="18" height="18" fill="#FFA500" stroke="#cc8400" stroke-width="1" rx="3"/>
<text x="405" y="183" font-size="12" fill="#2c3e50">Esperando</text>
<rect x="530" y="170" width="18" height="18" fill="#e74c3c" stroke="#b83c30" stroke-width="1" rx="3"/>
<text x="555" y="183" font-size="12" fill="#2c3e50">Bloqueado</text>
<rect x="680" y="170" width="18" height="18" fill="#2ecc71" stroke="#24a35a" stroke-width="1" rx="3"/>
<text x="705" y="183" font-size="12" fill="#2c3e50">Terminado</text>
<text x="600" y="570" text-anchor="middle" font-size="12" fill="#7f8c8d">Tempo total: 6 | Processos: 1 | Eventos: 2</text>
</svg>
