<?xml version="1.0" encoding="UTF-8"?>
<svg width="1000" height="400" xmlns="http://www.w3.org/2000/svg">
<rect width="100%" height="100%" fill="white"/>
<text x="500" y="30" text-anchor="middle" font-size="18" font-weight="bold">Gráfico de Gantt - Escalonamento</text>
<text x="70" y="99" text-anchor="end" font-size="12">P1</text>
<text x="70" y="139" text-anchor="end" font-size="12">P2</text>
<text x="70" y="179" text-anchor="end" font-size="12">P3</text>
<line x1="80" y1="80" x2="80" y2="200" stroke="#ccc" stroke-width="1"/>
<text x="80" y="70" text-anchor="middle" font-size="10">0</text>
<line x1="164" y1="80" x2="164" y2="200" stroke="#ccc" stroke-width="1"/>
<text x="164" y="70" text-anchor="middle" font-size="10">1</text>
<line x1="248" y1="80" x2="248" y2="200" stroke="#ccc" stroke-width="1"/>
<text x="248" y="70" text-anchor="middle" font-size="10">2</text>
<line x1="332" y1="80" x2="332" y2="200" stroke="#ccc" stroke-width="1"/>
<text x="332" y="70" text-anchor="middle" font-size="10">3</text>
<line x1="416" y1="80" x2="416" y2="200" stroke="#ccc" stroke-width="1"/>
<text x="416" y="70" text-anchor="middle" font-size="10">4</text>
<line x1="500" y1="80" x2="500" y2="200" stroke="#ccc" stroke-width="1"/>
<text x="500" y="70" text-anchor="middle" font-size="10">5</text>
<line x1="584" y1="80" x2="584" y2="200" stroke="#ccc" stroke-width="1"/>
<text x="584" y="70" text-anchor="middle" font-size="10">6</text>
<line x1="668" y1="80" x2="668" y2="200" stroke="#ccc" stroke-width="1"/>
<text x="668" y="70" text-anchor="middle" font-size="10">7</text>
<line x1="752" y1="80" x2="752" y2="200" stroke="#ccc" stroke-width="1"/>
<text x="752" y="70" text-anchor="middle" font-size="10">8</text>
<line x1="836" y1="80" x2="836" y2="200" stroke="#ccc" stroke-width="1"/>
<text x="836" y="70" text-anchor="middle" font-size="10">9</text>
<line x1="920" y1="80" x2="920" y2="200" stroke="#ccc" stroke-width="1"/>
<text x="920" y="70" text-anchor="middle" font-size="10">10</text>
<line x1="80" y1="80" x2="920" y2="80" stroke="black" stroke-width="2"/>
<line x1="80" y1="80" x2="80" y2="200" stroke="black" stroke-width="2"/>
<rect x="80" y="80" width="252" height="30" fill="#4ECDC4" stroke="black" stroke-width="1"/>
<text x="206" y="98" text-anchor="middle" font-size="10" fill="white">3,0</text>
<title>P1: 0,0-3,0 (duraçao: 3,0)</title>
<rect x="332" y="120" width="252" height="30" fill="#FF6B6B" stroke="black" stroke-width="1"/>
<text x="458" y="138" text-anchor="middle" font-size="10" fill="white">3,0</text>
<title>P2: 3,0-6,0 (duraçao: 3,0)</title>
<rect x="584" y="80" width="168" height="30" fill="#4ECDC4" stroke="black" stroke-width="1"/>
<text x="668" y="98" text-anchor="middle" font-size="10" fill="white">2,0</text>
<title>P1: 6,0-8,0 (duraçao: 2,0)</title>
<rect x="752" y="160" width="168" height="30" fill="#45B7D1" stroke="black" stroke-width="1"/>
<text x="836" y="178" text-anchor="middle" font-size="10" fill="white">2,0</text>
<title>P3: 8,0-10,0 (duraçao: 2,0)</title>
<text x="500" y="380" text-anchor="middle" font-size="12" fill="#666">Tempo total: 10 | Processos: 3 | Eventos: 4</text>
</svg>
