<?xml version="1.0" encoding="UTF-8"?>
<svg width="1000" height="460" xmlns="http://www.w3.org/2000/svg">
<rect width="100%" height="100%" fill="white"/>
<text x="500" y="30" text-anchor="middle" font-size="18" font-weight="bold">Gráfico de Gantt - Escalonamento</text>
<text x="70" y="99" text-anchor="end" font-size="12">t01</text>
<text x="70" y="139" text-anchor="end" font-size="12">t02</text>
<text x="70" y="179" text-anchor="end" font-size="12">t03</text>
<text x="70" y="219" text-anchor="end" font-size="12">t04</text>
<text x="70" y="259" text-anchor="end" font-size="12">t05</text>
<line x1="80" y1="80" x2="80" y2="280" stroke="#ccc" stroke-width="1"/>
<text x="80" y="70" text-anchor="middle" font-size="10">0</text>
<line x1="115" y1="80" x2="115" y2="280" stroke="#ccc" stroke-width="1"/>
<text x="115" y="70" text-anchor="middle" font-size="10">1</text>
<line x1="150" y1="80" x2="150" y2="280" stroke="#ccc" stroke-width="1"/>
<text x="150" y="70" text-anchor="middle" font-size="10">2</text>
<line x1="185" y1="80" x2="185" y2="280" stroke="#ccc" stroke-width="1"/>
<text x="185" y="70" text-anchor="middle" font-size="10">3</text>
<line x1="220" y1="80" x2="220" y2="280" stroke="#ccc" stroke-width="1"/>
<text x="220" y="70" text-anchor="middle" font-size="10">4</text>
<line x1="255" y1="80" x2="255" y2="280" stroke="#ccc" stroke-width="1"/>
<text x="255" y="70" text-anchor="middle" font-size="10">5</text>
<line x1="290" y1="80" x2="290" y2="280" stroke="#ccc" stroke-width="1"/>
<text x="290" y="70" text-anchor="middle" font-size="10">6</text>
<line x1="325" y1="80" x2="325" y2="280" stroke="#ccc" stroke-width="1"/>
<text x="325" y="70" text-anchor="middle" font-size="10">7</text>
<line x1="360" y1="80" x2="360" y2="280" stroke="#ccc" stroke-width="1"/>
<text x="360" y="70" text-anchor="middle" font-size="10">8</text>
<line x1="395" y1="80" x2="395" y2="280" stroke="#ccc" stroke-width="1"/>
<text x="395" y="70" text-anchor="middle" font-size="10">9</text>
<line x1="430" y1="80" x2="430" y2="280" stroke="#ccc" stroke-width="1"/>
<text x="430" y="70" text-anchor="middle" font-size="10">10</text>
<line x1="465" y1="80" x2="465" y2="280" stroke="#ccc" stroke-width="1"/>
<text x="465" y="70" text-anchor="middle" font-size="10">11</text>
<line x1="500" y1="80" x2="500" y2="280" stroke="#ccc" stroke-width="1"/>
<text x="500" y="70" text-anchor="middle" font-size="10">12</text>
<line x1="535" y1="80" x2="535" y2="280" stroke="#ccc" stroke-width="1"/>
<text x="535" y="70" text-anchor="middle" font-size="10">13</text>
<line x1="570" y1="80" x2="570" y2="280" stroke="#ccc" stroke-width="1"/>
<text x="570" y="70" text-anchor="middle" font-size="10">14</text>
<line x1="605" y1="80" x2="605" y2="280" stroke="#ccc" stroke-width="1"/>
<text x="605" y="70" text-anchor="middle" font-size="10">15</text>
<line x1="640" y1="80" x2="640" y2="280" stroke="#ccc" stroke-width="1"/>
<text x="640" y="70" text-anchor="middle" font-size="10">16</text>
<line x1="675" y1="80" x2="675" y2="280" stroke="#ccc" stroke-width="1"/>
<text x="675" y="70" text-anchor="middle" font-size="10">17</text>
<line x1="710" y1="80" x2="710" y2="280" stroke="#ccc" stroke-width="1"/>
<text x="710" y="70" text-anchor="middle" font-size="10">18</text>
<line x1="745" y1="80" x2="745" y2="280" stroke="#ccc" stroke-width="1"/>
<text x="745" y="70" text-anchor="middle" font-size="10">19</text>
<line x1="780" y1="80" x2="780" y2="280" stroke="#ccc" stroke-width="1"/>
<text x="780" y="70" text-anchor="middle" font-size="10">20</text>
<line x1="815" y1="80" x2="815" y2="280" stroke="#ccc" stroke-width="1"/>
<text x="815" y="70" text-anchor="middle" font-size="10">21</text>
<line x1="850" y1="80" x2="850" y2="280" stroke="#ccc" stroke-width="1"/>
<text x="850" y="70" text-anchor="middle" font-size="10">22</text>
<line x1="885" y1="80" x2="885" y2="280" stroke="#ccc" stroke-width="1"/>
<text x="885" y="70" text-anchor="middle" font-size="10">23</text>
<line x1="920" y1="80" x2="920" y2="280" stroke="#ccc" stroke-width="1"/>
<text x="920" y="70" text-anchor="middle" font-size="10">24</text>
<line x1="80" y1="80" x2="920" y2="80" stroke="black" stroke-width="2"/>
<line x1="80" y1="80" x2="80" y2="280" stroke="black" stroke-width="2"/>
<rect x="80" y="90" width="140" height="10" fill="#f0f0f0" stroke="#cccccc" stroke-width="1"/>
<text x="150" y="98" text-anchor="middle" font-size="10" fill="white">4,0</text>
<title>t01: 0,0-4,0 (duraçao: 4,0)</title>
<rect x="185" y="170" width="420" height="10" fill="#f0f0f0" stroke="#cccccc" stroke-width="1"/>
<text x="395" y="178" text-anchor="middle" font-size="10" fill="white">12,0</text>
<title>t03: 3,0-15,0 (duraçao: 12,0)</title>
<rect x="80" y="120" width="140" height="30" fill="#00FF00" stroke="black" stroke-width="1"/>
<text x="150" y="138" text-anchor="middle" font-size="10" fill="white">4,0</text>
<title>t02: 0,0-4,0 (duraçao: 4,0)</title>
<rect x="255" y="210" width="35" height="10" fill="#f0f0f0" stroke="#cccccc" stroke-width="1"/>
<text x="272" y="218" text-anchor="middle" font-size="10" fill="white">1,0</text>
<title>t04: 5,0-6,0 (duraçao: 1,0)</title>
<rect x="220" y="80" width="70" height="30" fill="#FF0000" stroke="black" stroke-width="1"/>
<text x="255" y="98" text-anchor="middle" font-size="10" fill="white">2,0</text>
<title>t01: 4,0-6,0 (duraçao: 2,0)</title>
<rect x="290" y="90" width="210" height="10" fill="#f0f0f0" stroke="#cccccc" stroke-width="1"/>
<text x="395" y="98" text-anchor="middle" font-size="10" fill="white">6,0</text>
<title>t01: 6,0-12,0 (duraçao: 6,0)</title>
<rect x="325" y="250" width="455" height="10" fill="#f0f0f0" stroke="#cccccc" stroke-width="1"/>
<text x="552" y="258" text-anchor="middle" font-size="10" fill="white">13,0</text>
<title>t05: 7,0-20,0 (duraçao: 13,0)</title>
<rect x="290" y="200" width="210" height="30" fill="#FFFF00" stroke="black" stroke-width="1"/>
<text x="395" y="218" text-anchor="middle" font-size="10" fill="white">6,0</text>
<title>t04: 6,0-12,0 (duraçao: 6,0)</title>
<rect x="500" y="80" width="105" height="30" fill="#FF0000" stroke="black" stroke-width="1"/>
<text x="552" y="98" text-anchor="middle" font-size="10" fill="white">3,0</text>
<title>t01: 12,0-15,0 (duraçao: 3,0)</title>
<rect x="605" y="160" width="175" height="30" fill="#0000FF" stroke="black" stroke-width="1"/>
<text x="692" y="178" text-anchor="middle" font-size="10" fill="white">5,0</text>
<title>t03: 15,0-20,0 (duraçao: 5,0)</title>
<rect x="780" y="240" width="140" height="30" fill="#FF00FF" stroke="black" stroke-width="1"/>
<text x="850" y="258" text-anchor="middle" font-size="10" fill="white">4,0</text>
<title>t05: 20,0-24,0 (duraçao: 4,0)</title>
<text x="500" y="440" text-anchor="middle" font-size="12" fill="#666">Tempo total: 24 | Processos: 5 | Eventos: 11</text>
</svg>
